<svg xmlns="http://www.w3.org/2000/svg" width="25" height="24" fill="none" viewBox="0 0 25 24" id="amazon-web-service"><rect width="24" height="24" x=".463" fill="url(#paint0_linear_302_4690)" rx="8"></rect><path fill="#fff" fill-rule="evenodd" d="M16.1374 7.49423C16.4475 7.14662 16.896 7 17.406 7C18.0346 7 18.4711 7.13028 18.7686 7.25557C18.8495 7.28961 18.8908 7.37852 18.8694 7.46361L18.6863 8.19102C18.6576 8.305 18.5323 8.36054 18.4258 8.31068C18.2078 8.20853 17.906 8.10342 17.406 8.10342C17.1023 8.10342 16.999 8.18596 16.9608 8.22877C16.8088 8.39918 16.8049 8.6413 16.9945 8.75834C17.2747 8.93119 17.5885 9.0375 17.9028 9.14392C18.1933 9.24229 18.4841 9.34076 18.7487 9.49198C19.0277 9.65146 19.4289 9.95858 19.4289 10.4942C19.4289 10.989 19.2722 11.4583 18.8559 11.7763C18.4688 12.0721 17.9504 12.1621 17.3932 12.1492C16.6973 12.133 16.2093 11.9791 15.9193 11.8484C15.8267 11.8067 15.7947 11.6945 15.844 11.6056L16.2007 10.9623C16.2499 10.8735 16.362 10.8415 16.4567 10.8782C16.64 10.9492 16.9537 11.0352 17.4188 11.046C17.8733 11.0566 18.0906 10.9725 18.186 10.8995C18.3501 10.7742 18.3782 10.5511 18.2012 10.45C17.9313 10.2958 17.6381 10.1955 17.3448 10.0952C17.0253 9.98595 16.7055 9.8766 16.4151 9.69736C16.117 9.51343 15.7508 9.18733 15.7508 8.65514C15.7508 8.26127 15.838 7.82989 16.1374 7.49423ZM12.6671 7.03268H11.4784L10.618 10.2357L9.84647 7.07143H8.71605L9.99619 12.1495H11.1959L12.0727 9.22667L12.9496 12.1495H14.1492L15.4618 7.07143H14.299L13.5274 10.2357L12.6671 7.03268ZM19.1205 13.8871C19.0065 13.758 18.482 13.8025 17.9781 13.8453C17.4781 13.8878 16.9983 13.9285 16.96 13.7962C16.883 13.5306 19.2883 12.9152 19.8825 13.3972C20.3996 13.8167 19.0646 16.2923 18.6972 16.0924C18.624 16.0526 18.7331 15.7535 18.8678 15.384C19.0693 14.8316 19.328 14.122 19.1205 13.8871ZM11.8941 15.5888C8.56381 15.5888 6.1773 14.4354 4.94494 13.8398C4.42891 13.5903 4.11524 13.4387 4.0194 13.5106C3.69466 13.7541 7.49401 16.758 11.8941 16.758C15.7421 16.758 19.0707 14.6798 18.5835 14.4037C18.4095 14.305 18.0448 14.4282 17.4552 14.6272C16.3949 14.9853 14.6072 15.5888 11.8941 15.5888ZM6.37172 8.10342C6.74225 8.10342 7.01649 8.18149 7.17783 8.26792C7.34741 8.35876 7.32352 8.6048 7.30322 8.81387C7.29706 8.87727 7.29124 8.93728 7.29124 8.98852C7.0137 8.91138 6.6762 8.83904 6.37172 8.83904C5.75179 8.83904 5.22673 9.04577 4.86045 9.44236C4.50091 9.83165 4.34877 10.3448 4.34877 10.862C4.34877 11.1417 4.4204 11.3977 4.57391 11.6103C4.72492 11.8194 4.9244 11.9439 5.10937 12.0179C5.44004 12.1502 5.80721 12.1496 5.98245 12.1493H6.00391C6.55313 12.1493 7.11089 11.913 7.48507 11.7202C7.51365 11.7054 7.54161 11.6907 7.5689 11.6761C7.67271 11.8427 7.79098 11.992 7.88092 12.082C8.45191 12.0054 8.63218 11.8521 8.66116 11.3017C8.63819 11.2788 8.55854 11.1835 8.48615 11.0609C8.45171 11.0025 8.42577 10.9494 8.40959 10.906C8.39863 10.8765 8.39553 10.8606 8.39475 10.8565L8.39466 8.28733C8.39466 7.7975 8.0222 7.46848 7.69889 7.29527C7.34529 7.10584 6.88392 7 6.37172 7C6.0672 7 5.55525 7.12992 5.17012 7.25422C5.01202 7.30525 4.91549 7.46136 4.93153 7.62671L4.9567 7.88625C4.98288 8.15613 5.29493 8.32706 5.55494 8.25014C5.84872 8.16322 6.16913 8.10342 6.37172 8.10342ZM7.29124 10.1427V10.5639C7.20443 10.617 7.09808 10.6783 6.97954 10.7394C6.64012 10.9144 6.27836 11.0459 6.00391 11.0459C5.91 11.0459 5.81974 11.0455 5.72863 11.0369C5.2638 10.9926 5.35941 10.5285 5.67105 10.191C5.79349 10.0584 6.00405 9.94247 6.37172 9.94247C6.57712 9.94247 6.8774 10.0119 7.16345 10.1013C7.20804 10.1152 7.25084 10.1291 7.29124 10.1427Z" clip-rule="evenodd"></path><defs><linearGradient id="paint0_linear_302_4690" x1=".463" x2="24.463" y1="12" y2="12" gradientUnits="userSpaceOnUse"><stop stop-color="#ED6D6B"></stop><stop offset="1" stop-color="#F0B076"></stop></linearGradient></defs></svg>