<svg xmlns="http://www.w3.org/2000/svg" xmlns:xlink="http://www.w3.org/1999/xlink" viewBox="0 0 32 32" id="github"><g><path fill="#CCC" d="M15.995.005c-8.837 0-16 7.163-16 16 0 8.836 7.163 16 16 16s16-7.164 16-16-7.164-16-16-16z"></path><path fill="#1A1718" d="M15.995 1.364c-8.086 0-14.641 6.555-14.641 14.641s6.555 14.641 14.641 14.641 14.641-6.555 14.641-14.641S24.081 1.364 15.995 1.364z"></path><g><defs><path id="a" d="M16 0C7.163 0 0 7.163 0 16c0 8.836 7.163 16 16 16s16-7.164 16-16c0-8.837-7.163-16-16-16z"></path></defs><clipPath id="b"><use overflow="visible" xlink:href="#a"></use></clipPath><path fill="#FFF" fill-rule="evenodd" d="M0 32V0h32" clip-path="url(#b)" clip-rule="evenodd" opacity=".2"></path></g></g><g><path fill="#FFF" d="M18.444 26.128H13.243s.007-1.544 0-2.602c-3.56.766-4.553-1.951-4.553-1.951-.65-1.301-1.301-1.951-1.301-1.951-1.301-.773 0-.65 0-.65 1.301 0 1.951 1.301 1.951 1.301 1.142 1.938 3.173 1.626 3.903 1.301 0-.65.285-1.634.65-1.951-2.841-.32-5.207-1.951-5.207-5.204s.653-3.903 1.304-4.553c-.131-.321-.676-1.506.02-3.252 0 0 1.278 0 2.579 1.951.645-.645 2.602-.65 3.253-.65.649 0 2.607.006 3.251.65 1.301-1.951 2.582-1.951 2.582-1.951.695 1.747.152 2.932.02 3.252.65.65 1.301 1.301 1.301 4.553s-2.362 4.884-5.204 5.204c.366.317.65 1.437.65 1.951l.002 4.552z"></path></g></svg>